<svg xmlns="http://www.w3.org/2000/svg" xmlns:xlink="http://www.w3.org/1999/xlink" width="500" zoomAndPan="magnify" viewBox="0 0 375 374.999991" height="500" preserveAspectRatio="xMidYMid meet" version="1.2"><defs><clipPath id="406deaf644"><path d="M 64.761719 21.074219 L 310.011719 21.074219 L 310.011719 354.074219 L 64.761719 354.074219 Z M 64.761719 21.074219 "/></clipPath></defs><g id="9fa655f556"><rect x="0" width="375" y="0" height="374.999991" style="fill:#ffffff;fill-opacity:1;stroke:none;"/><rect x="0" width="375" y="0" height="374.999991" style="fill:#5b4ecd;fill-opacity:1;stroke:none;"/><g clip-rule="nonzero" clip-path="url(#406deaf644)"><path style=" stroke:none;fill-rule:nonzero;fill:#ffffff;fill-opacity:1;" d="M 78.328125 242.234375 L 85.371094 242.234375 C 86.851562 268.136719 97.226562 289.433594 116.644531 306.28125 C 135.617188 322.90625 157.480469 331.144531 182.085938 331.144531 C 201.0625 331.144531 216.476562 325.800781 228.484375 315.113281 C 240.488281 304.425781 246.195312 291.511719 246.195312 276.59375 C 246.195312 260.789062 240.414062 248.542969 228.925781 239.859375 C 217.882812 231.398438 195.871094 221.75 163.113281 211.0625 C 136.804688 202.382812 118.203125 195.109375 107.011719 189.46875 C 94.042969 182.789062 83.960938 173.734375 76.625 162.453125 C 68.695312 150.949219 64.765625 137.964844 64.765625 123.566406 C 64.765625 107.609375 70.101562 91.949219 80.773438 76.585938 C 78.402344 84.527344 77.144531 91.355469 77.144531 97.292969 C 77.144531 113.101562 80.847656 126.90625 88.335938 138.855469 C 96.042969 151.171875 105.453125 160.523438 116.792969 166.757812 C 128.058594 173.214844 147.03125 180.636719 173.417969 188.875 C 207.953125 199.414062 232.855469 210.988281 248.195312 223.753906 C 262.945312 236.074219 270.28125 252.699219 270.28125 273.480469 C 270.28125 293.960938 262.574219 312.441406 247.234375 328.917969 C 231.667969 345.761719 208.398438 354.074219 177.492188 354.074219 C 164.96875 354.074219 147.625 351.699219 125.390625 347.097656 C 105.972656 343.015625 91.449219 340.867188 81.738281 340.792969 L 79.589844 338.417969 C 79.8125 335.003906 79.960938 330.476562 79.960938 325.058594 C 79.960938 318.601562 79.367188 308.582031 78.179688 295 C 77.144531 281.417969 76.699219 271.402344 76.699219 264.574219 C 77.070312 256.039062 77.589844 248.542969 78.328125 242.234375 Z M 292.292969 115.476562 L 285.996094 115.476562 C 285.773438 91.949219 276.507812 74.585938 258.128906 63.304688 C 240.191406 52.246094 218.328125 46.605469 192.6875 46.605469 C 172.230469 46.605469 155.554688 50.984375 142.363281 59.59375 C 129.023438 68.277344 122.425781 78.664062 122.425781 90.910156 C 122.425781 103.898438 127.761719 114.066406 138.210938 121.5625 C 149.179688 129.726562 170.601562 139.300781 202.765625 150.355469 C 232.632812 160.671875 253.53125 169.132812 265.464844 175.515625 C 278.210938 182.640625 288.8125 192.660156 297.257812 205.945312 C 305.707031 219.523438 310.007812 234.515625 310.007812 251.140625 C 310.007812 276.445312 300.742188 296.1875 282.140625 310.585938 C 289.03125 301.085938 292.441406 287.726562 292.441406 270.585938 C 292.441406 254.40625 288.738281 240.082031 281.25 227.539062 C 273.320312 214.773438 263.6875 204.683594 252.125 197.113281 C 240.414062 189.394531 221.292969 181.15625 194.835938 172.472656 C 155.035156 159.335938 129.023438 148.054688 117.015625 138.78125 C 104.9375 129.28125 98.859375 114.511719 98.859375 94.472656 C 98.859375 71.394531 108.121094 53.359375 126.726562 40.148438 C 145.328125 27.382812 171.636719 21.074219 205.804688 21.074219 C 229.074219 21.074219 257.386719 25.15625 290.960938 33.171875 L 290.960938 35.324219 L 291.554688 46.828125 C 291.554688 52.914062 291.773438 60.1875 292.144531 68.648438 C 292.738281 78.960938 293.035156 88.089844 293.035156 95.957031 C 292.8125 101.375 292.589844 107.757812 292.292969 115.476562 Z M 292.292969 115.476562 "/></g></g></svg>