<svg xmlns="http://www.w3.org/2000/svg" xmlns:xlink="http://www.w3.org/1999/xlink" width="500" zoomAndPan="magnify" viewBox="0 0 375 374.999991" height="500" preserveAspectRatio="xMidYMid meet" version="1.2"><defs><clipPath id="5202186961"><path d="M 70.808594 29.273438 L 304.058594 29.273438 L 304.058594 345.773438 L 70.808594 345.773438 Z M 70.808594 29.273438 "/></clipPath></defs><g id="da3cfcceed"><rect x="0" width="375" y="0" height="374.999991" style="fill:#ffffff;fill-opacity:1;stroke:none;"/><rect x="0" width="375" y="0" height="374.999991" style="fill:#ffffff;fill-opacity:1;stroke:none;"/><g clip-rule="nonzero" clip-path="url(#5202186961)"><path style=" stroke:none;fill-rule:nonzero;fill:#8e44ad;fill-opacity:1;" d="M 83.714844 239.441406 L 90.417969 239.441406 C 91.828125 264.054688 101.699219 284.296875 120.179688 300.304688 C 138.234375 316.105469 159.039062 323.933594 182.453125 323.933594 C 200.507812 323.933594 215.179688 318.855469 226.605469 308.699219 C 238.027344 298.542969 243.460938 286.273438 243.460938 272.097656 C 243.460938 257.074219 237.957031 245.4375 227.027344 237.183594 C 216.519531 229.144531 195.570312 219.976562 164.398438 209.820312 C 139.363281 201.570312 121.660156 194.65625 111.011719 189.296875 C 98.667969 182.949219 89.078125 174.347656 82.09375 163.625 C 74.546875 152.695312 70.808594 140.351562 70.808594 126.671875 C 70.808594 111.507812 75.886719 96.625 86.042969 82.027344 C 83.789062 89.574219 82.589844 96.0625 82.589844 101.703125 C 82.589844 116.726562 86.113281 129.84375 93.238281 141.199219 C 100.574219 152.90625 109.53125 161.792969 120.320312 167.714844 C 131.039062 173.851562 149.09375 180.90625 174.203125 188.734375 C 207.066406 198.75 230.765625 209.75 245.363281 221.882812 C 259.398438 233.589844 266.378906 249.386719 266.378906 269.132812 C 266.378906 288.597656 259.046875 306.160156 244.445312 321.816406 C 229.636719 337.828125 207.492188 345.726562 178.082031 345.726562 C 166.164062 345.726562 149.660156 343.46875 128.5 339.097656 C 110.023438 335.21875 96.199219 333.171875 86.960938 333.101562 L 84.914062 330.84375 C 85.128906 327.601562 85.269531 323.296875 85.269531 318.148438 C 85.269531 312.015625 84.703125 302.492188 83.574219 289.585938 C 82.589844 276.679688 82.164062 267.160156 82.164062 260.671875 C 82.519531 252.558594 83.011719 245.4375 83.714844 239.441406 Z M 287.328125 118.984375 L 281.332031 118.984375 C 281.121094 96.625 272.304688 80.121094 254.8125 69.402344 C 237.746094 58.894531 216.941406 53.535156 192.539062 53.535156 C 173.074219 53.535156 157.207031 57.695312 144.652344 65.875 C 131.957031 74.128906 125.679688 84 125.679688 95.636719 C 125.679688 107.980469 130.757812 117.640625 140.703125 124.765625 C 151.140625 132.523438 171.523438 141.621094 202.132812 152.128906 C 230.554688 161.933594 250.441406 169.972656 261.796875 176.039062 C 273.925781 182.808594 284.011719 192.332031 292.050781 204.953125 C 300.09375 217.859375 304.183594 232.105469 304.183594 247.90625 C 304.183594 271.953125 295.367188 290.714844 277.664062 304.398438 C 284.222656 295.371094 287.46875 282.675781 287.46875 266.382812 C 287.46875 251.007812 283.941406 237.398438 276.820312 225.476562 C 269.273438 213.347656 260.105469 203.753906 249.101562 196.5625 C 237.957031 189.226562 219.761719 181.398438 194.585938 173.148438 C 156.710938 160.664062 131.957031 149.945312 120.53125 141.128906 C 109.035156 132.101562 103.253906 118.066406 103.253906 99.023438 C 103.253906 77.089844 112.070312 59.953125 129.769531 47.398438 C 147.472656 35.265625 172.511719 29.273438 205.023438 29.273438 C 227.167969 29.273438 254.109375 33.152344 286.058594 40.769531 L 286.058594 42.8125 L 286.621094 53.746094 C 286.621094 59.527344 286.832031 66.441406 287.1875 74.480469 C 287.75 84.285156 288.03125 92.957031 288.03125 100.433594 C 287.820312 105.582031 287.609375 111.648438 287.328125 118.984375 Z M 287.328125 118.984375 "/></g></g></svg>